<svg width="390" height="390" viewBox="0 0 390 390" fill="none" xmlns="http://www.w3.org/2000/svg">
<g clip-path="url(#clip0_42_65)">
<rect width="390" height="390" fill="url(#paint0_linear_42_65)"/>
<path d="M390 390H0V0H390V390ZM278.349 166.513C264.596 155.864 245.404 155.864 231.651 166.513C230.701 167.249 229.667 168.16 227.599 169.98C226.906 170.59 226.559 170.895 226.212 171.187C221.342 175.272 215.533 178.076 209.31 179.345C208.865 179.435 208.411 179.517 207.504 179.68C204.794 180.165 203.44 180.407 202.272 180.693C185.391 184.83 173.425 199.869 173.157 217.285C173.139 218.489 173.204 219.867 173.335 222.623C173.379 223.546 173.4 224.008 173.411 224.462C173.562 230.825 172.128 237.126 169.237 242.794C169.031 243.198 168.811 243.605 168.372 244.417C167.061 246.843 166.406 248.056 165.901 249.148C158.603 264.956 162.874 283.71 176.293 294.778C177.221 295.543 178.336 296.351 180.567 297.967C181.314 298.508 181.688 298.779 182.049 299.054C187.107 302.903 191.127 307.956 193.746 313.755C193.933 314.169 194.113 314.594 194.473 315.444C195.548 317.984 196.086 319.253 196.624 320.33C204.405 335.905 221.695 344.251 238.695 340.638C239.871 340.388 241.197 340.017 243.849 339.276C244.736 339.028 245.18 338.905 245.619 338.793C251.776 337.229 258.224 337.229 264.381 338.793C264.82 338.905 265.264 339.028 266.151 339.276C268.803 340.017 270.129 340.388 271.305 340.638C288.305 344.251 305.595 335.905 313.376 320.33C313.914 319.253 314.452 317.984 315.527 315.444C315.887 314.594 316.067 314.169 316.254 313.755C318.873 307.956 322.893 302.903 327.951 299.054C328.312 298.779 328.686 298.508 329.433 297.967C331.664 296.351 332.779 295.543 333.707 294.778C347.126 283.71 351.397 264.956 344.099 249.148C343.594 248.056 342.939 246.843 341.628 244.417C341.189 243.605 340.969 243.198 340.763 242.794C337.872 237.126 336.438 230.825 336.589 224.462C336.6 224.008 336.621 223.546 336.665 222.623C336.796 219.867 336.861 218.489 336.843 217.285C336.575 199.869 324.609 184.83 307.728 180.693C306.56 180.407 305.206 180.165 302.496 179.68C301.589 179.517 301.135 179.435 300.69 179.345C294.467 178.076 288.658 175.272 283.788 171.187C283.441 170.895 283.094 170.59 282.401 169.98C280.333 168.16 279.299 167.249 278.349 166.513ZM162.02 77.9805C139.126 55.0867 102.007 55.0869 79.1133 77.9805L59.9805 97.1133C37.0869 120.007 37.0867 157.126 59.9805 180.02C82.8742 202.913 119.993 202.913 142.887 180.02L162.02 160.887C184.913 137.993 184.913 100.874 162.02 77.9805Z" fill="black"/>
<g clip-path="url(#clip1_42_65)">
<path d="M299.437 64.1641L305.538 65.7987C311.253 67.33 315.423 68.4487 318.673 69.5519C321.903 70.6481 324.056 71.6768 325.775 72.9531C331.054 76.8739 334.477 82.803 335.233 89.3353C335.479 91.4617 335.293 93.8413 334.628 97.1864C333.958 100.552 332.842 104.723 331.311 110.438L329.676 116.538C328.145 122.253 327.025 126.423 325.922 129.673C324.826 132.903 323.798 135.056 322.522 136.775C318.601 142.054 312.672 145.477 306.14 146.233C304.013 146.479 301.634 146.293 298.288 145.628C294.922 144.958 290.751 143.842 285.036 142.311L278.936 140.676C273.221 139.145 269.052 138.025 265.802 136.922C262.572 135.826 260.418 134.798 258.7 133.522C253.42 129.601 249.997 123.672 249.241 117.14C248.995 115.013 249.181 112.634 249.847 109.289C250.516 105.923 251.633 101.752 253.164 96.0365L254.799 89.9363C256.33 84.2214 257.449 80.0517 258.552 76.8018C259.648 73.5721 260.677 71.4185 261.953 69.6999C265.874 64.4206 271.803 60.9975 278.335 60.2417C280.462 59.9956 282.841 60.1816 286.186 60.847C289.552 61.5167 293.723 62.6329 299.437 64.1641Z" stroke="#6CF983" stroke-width="5"/>
</g>
<path d="M106 260.395C127.874 260.395 145.606 278.127 145.606 300C145.606 321.873 127.873 339.606 106 339.606C84.1269 339.606 66.3949 321.873 66.3948 300C66.3948 278.127 84.1269 260.395 106 260.395Z" stroke="#338BFF" stroke-width="5"/>
</g>
<defs>
<linearGradient id="paint0_linear_42_65" x1="233" y1="-7.73844e-06" x2="106.5" y2="390" gradientUnits="userSpaceOnUse">
<stop offset="0.259615" stop-color="#6CF983"/>
<stop offset="0.8" stop-color="#338BFF"/>
</linearGradient>
<clipPath id="clip0_42_65">
<rect width="390" height="390" fill="white"/>
</clipPath>
<clipPath id="clip1_42_65">
<rect width="100" height="100" fill="white" transform="translate(256.882 42) rotate(15)"/>
</clipPath>
</defs>
</svg>
