<svg width="390" height="390" viewBox="0 0 390 390" fill="none" xmlns="http://www.w3.org/2000/svg">
<g clip-path="url(#clip0_50_226)">
<rect width="390" height="390" fill="url(#paint0_linear_50_226)"/>
<path d="M390 390H0V0H390V390ZM278.348 166.513C264.595 155.864 245.404 155.864 231.651 166.513C230.701 167.249 229.667 168.16 227.599 169.98L226.775 170.702C226.559 170.891 226.386 171.041 226.212 171.187L225.753 171.565C220.979 175.446 215.338 178.116 209.309 179.345C208.865 179.435 208.411 179.517 207.504 179.68L205.707 180.002C204.129 180.288 203.148 180.479 202.272 180.693L201.484 180.896C185.02 185.301 173.421 200.141 173.157 217.285C173.139 218.489 173.204 219.868 173.335 222.623L173.386 223.719C173.398 224.006 173.406 224.235 173.411 224.462L173.421 225.058C173.471 231.218 172.037 237.303 169.236 242.794L168.892 243.452C168.756 243.706 168.592 244.011 168.372 244.417L167.504 246.026C166.743 247.442 166.28 248.329 165.901 249.148L165.567 249.892C158.738 265.54 163.083 283.883 176.292 294.778L176.65 295.068C177.516 295.758 178.614 296.553 180.566 297.967C181.313 298.508 181.687 298.779 182.048 299.054L182.52 299.418C187.356 303.219 191.209 308.137 193.746 313.755L194.044 314.436C194.157 314.7 194.293 315.019 194.473 315.444L195.187 317.128C195.816 318.607 196.22 319.523 196.623 320.331L196.995 321.056C204.818 335.924 221.423 343.938 237.898 340.798L238.695 340.638C239.577 340.45 240.543 340.195 242.09 339.767L243.849 339.276C244.292 339.152 244.626 339.059 244.902 338.983L245.619 338.793C251.775 337.229 258.224 337.23 264.38 338.793L265.098 338.983C265.374 339.059 265.708 339.152 266.151 339.276L267.91 339.767C269.456 340.195 270.422 340.45 271.304 340.638L272.101 340.798C288.576 343.938 305.182 335.924 313.005 321.056L313.376 320.331C313.779 319.524 314.183 318.607 314.812 317.128L315.527 315.444C315.707 315.019 315.842 314.7 315.955 314.436L316.254 313.755C318.791 308.137 322.644 303.219 327.48 299.418L327.951 299.054C328.312 298.779 328.686 298.508 329.433 297.967C331.385 296.553 332.483 295.758 333.349 295.068L333.707 294.778C347.126 283.71 351.397 264.956 344.099 249.148C343.594 248.056 342.938 246.843 341.628 244.417C341.189 243.605 340.969 243.198 340.763 242.794C337.962 237.303 336.529 231.218 336.579 225.058L336.588 224.462C336.593 224.235 336.602 224.006 336.614 223.719L336.665 222.623C336.796 219.868 336.86 218.489 336.842 217.285C336.574 199.869 324.609 184.83 307.728 180.693C306.56 180.407 305.205 180.165 302.495 179.68C301.588 179.517 301.134 179.435 300.69 179.345C294.467 178.076 288.657 175.272 283.787 171.187C283.44 170.895 283.094 170.59 282.401 169.98C280.333 168.16 279.298 167.249 278.348 166.513ZM237.773 174.42C247.921 166.562 262.078 166.562 272.226 174.42C272.866 174.916 273.616 175.569 275.794 177.486C276.452 178.065 276.9 178.462 277.359 178.847H277.36C283.505 184.002 290.837 187.542 298.693 189.144C299.281 189.263 299.87 189.368 300.731 189.522C303.584 190.034 304.562 190.214 305.347 190.406C317.796 193.457 326.646 204.558 326.844 217.439C326.856 218.252 326.813 219.249 326.676 222.149C326.634 223.027 326.605 223.625 326.591 224.225C326.401 232.247 328.209 240.191 331.854 247.338C332.127 247.872 332.412 248.398 332.829 249.17C334.209 251.724 334.679 252.604 335.02 253.341C340.416 265.029 337.253 278.891 327.344 287.064C326.719 287.58 325.916 288.167 323.567 289.868C322.858 290.382 322.372 290.733 321.896 291.096C315.513 295.953 310.442 302.327 307.14 309.639C306.893 310.185 306.661 310.737 306.318 311.546C305.187 314.219 304.793 315.135 304.431 315.861C298.681 327.371 285.917 333.52 273.384 330.856H273.383C272.592 330.688 271.634 330.426 268.843 329.646C267.999 329.41 267.423 329.248 266.842 329.101C259.07 327.127 250.929 327.127 243.157 329.101C242.577 329.248 242.001 329.41 241.157 329.646C239.063 330.231 238 330.525 237.267 330.706L236.616 330.856C224.083 333.521 211.319 327.371 205.569 315.861C205.207 315.135 204.813 314.219 203.682 311.546C203.339 310.738 203.106 310.185 202.859 309.639C199.557 302.327 194.487 295.953 188.104 291.096C187.628 290.733 187.142 290.382 186.433 289.868C184.083 288.167 183.28 287.58 182.655 287.064C172.746 278.891 169.584 265.029 174.98 253.341C175.321 252.604 175.79 251.724 177.17 249.17C177.587 248.398 177.872 247.872 178.145 247.338C181.79 240.191 183.598 232.247 183.408 224.225C183.394 223.625 183.365 223.027 183.323 222.149C183.186 219.249 183.144 218.252 183.156 217.439C183.354 204.558 192.203 193.457 204.652 190.406C205.437 190.214 206.414 190.034 209.268 189.522C210.13 189.368 210.719 189.263 211.307 189.144C219.163 187.542 226.495 184.002 232.64 178.847C233.099 178.461 233.548 178.066 234.206 177.486C236.383 175.57 237.133 174.916 237.773 174.42ZM162.02 77.9805C139.126 55.0867 102.007 55.0869 79.1133 77.9805L59.9805 97.1133L59.4482 97.6523C37.0884 120.586 37.2656 157.305 59.9805 180.02L60.5205 180.552C83.2737 202.735 119.595 202.735 142.348 180.552L142.887 180.02L162.02 160.887C184.913 137.993 184.913 100.874 162.02 77.9805ZM86.1846 85.0518C105.173 66.0635 135.96 66.0633 154.948 85.0518C173.937 104.04 173.937 134.827 154.948 153.815L135.815 172.948C116.827 191.937 86.0403 191.937 67.0518 172.948C48.0633 153.96 48.0635 123.173 67.0518 104.185L86.1846 85.0518Z" fill="black"/>
<g clip-path="url(#clip1_50_226)">
<path d="M299.437 64.1641L305.538 65.7987C311.253 67.33 315.423 68.4487 318.673 69.5519C321.903 70.6481 324.056 71.6768 325.775 72.9531C331.054 76.8739 334.477 82.803 335.233 89.3353C335.479 91.4617 335.293 93.8413 334.628 97.1864C333.958 100.552 332.842 104.723 331.311 110.438L329.676 116.538C328.145 122.253 327.025 126.423 325.922 129.673C324.826 132.903 323.798 135.056 322.522 136.775C318.601 142.054 312.672 145.477 306.14 146.233C304.013 146.479 301.634 146.293 298.289 145.628C294.922 144.958 290.751 143.842 285.036 142.311L278.936 140.676C273.221 139.145 269.052 138.025 265.802 136.922C262.572 135.826 260.418 134.798 258.7 133.522C253.421 129.601 249.997 123.672 249.242 117.14C248.996 115.013 249.181 112.634 249.847 109.289C250.517 105.923 251.633 101.752 253.164 96.0365L254.799 89.9363C256.33 84.2214 257.449 80.0517 258.552 76.8018C259.648 73.5721 260.677 71.4185 261.953 69.6999C265.874 64.4206 271.803 60.9975 278.335 60.2417C280.462 59.9956 282.841 60.1816 286.186 60.847C289.552 61.5167 293.723 62.6329 299.437 64.1641Z" stroke="#AEAEAE" stroke-width="5"/>
</g>
<path d="M106 260.395C127.874 260.395 145.606 278.127 145.606 300C145.606 321.873 127.873 339.606 106 339.606C84.1269 339.606 66.3949 321.873 66.3947 300C66.3947 278.127 84.1268 260.395 106 260.395Z" stroke="#338BFF" stroke-width="5"/>
</g>
<defs>
<linearGradient id="paint0_linear_50_226" x1="233" y1="-7.73844e-06" x2="106.5" y2="390" gradientUnits="userSpaceOnUse">
<stop offset="0.259615" stop-color="#6CF983"/>
<stop offset="0.8" stop-color="#338BFF"/>
</linearGradient>
<clipPath id="clip0_50_226">
<rect width="390" height="390" fill="white"/>
</clipPath>
<clipPath id="clip1_50_226">
<rect width="100" height="100" fill="white" transform="translate(256.882 42) rotate(15)"/>
</clipPath>
</defs>
</svg>
