<svg width="390" height="390" viewBox="0 0 390 390" fill="none" xmlns="http://www.w3.org/2000/svg">
<g clip-path="url(#clip0_46_114)">
<rect width="390" height="390" fill="url(#paint0_linear_46_114)"/>
<rect width="390" height="390" fill="black"/>
<path d="M234.713 170.467C246.663 161.213 263.337 161.213 275.287 170.467C276.083 171.083 276.975 171.865 279.098 173.733C279.773 174.328 280.17 174.678 280.573 175.017C286.081 179.637 292.652 182.809 299.693 184.244C300.208 184.349 300.729 184.442 301.614 184.601C304.395 185.099 305.561 185.311 306.537 185.55C321.203 189.144 331.61 202.213 331.843 217.362C331.859 218.371 331.804 219.558 331.67 222.387C331.627 223.286 331.603 223.816 331.59 224.343C331.419 231.535 333.041 238.658 336.309 245.065C336.548 245.535 336.801 246.002 337.229 246.794C338.574 249.283 339.136 250.329 339.559 251.244V251.245C345.906 264.993 342.189 281.3 330.526 290.921C329.749 291.561 328.791 292.259 326.5 293.918C325.772 294.445 325.342 294.755 324.923 295.074C319.203 299.427 314.658 305.142 311.698 311.697C311.481 312.177 311.274 312.666 310.923 313.495C309.82 316.102 309.354 317.194 308.904 318.096C302.138 331.638 287.111 338.886 272.344 335.747C271.361 335.538 270.219 335.221 267.497 334.461C266.632 334.219 266.122 334.076 265.612 333.946C258.648 332.178 251.353 332.178 244.389 333.946C243.879 334.076 243.369 334.219 242.503 334.461C239.781 335.221 238.639 335.538 237.656 335.747C222.89 338.886 207.862 331.638 201.097 318.096C200.647 317.194 200.181 316.102 199.077 313.495C198.726 312.666 198.52 312.177 198.303 311.697C195.342 305.142 190.797 299.427 185.076 295.074C184.658 294.755 184.228 294.445 183.499 293.918C181.209 292.259 180.25 291.561 179.474 290.921C167.81 281.3 164.094 264.993 170.441 251.245C170.863 250.33 171.426 249.284 172.772 246.794C173.2 246.002 173.451 245.535 173.691 245.065C176.959 238.658 178.581 231.536 178.41 224.343C178.398 223.816 178.372 223.286 178.329 222.387C178.195 219.558 178.142 218.371 178.157 217.362C178.39 202.213 188.797 189.144 203.462 185.55C204.438 185.311 205.604 185.099 208.386 184.601C209.271 184.442 209.792 184.349 210.308 184.244C217.348 182.809 223.919 179.637 229.426 175.017C229.829 174.678 230.227 174.328 230.903 173.733C233.026 171.865 233.918 171.083 234.713 170.467Z" stroke="#AEAEAE" stroke-width="10"/>
<path d="M106 260.395C127.874 260.395 145.606 278.127 145.606 300C145.606 321.873 127.873 339.606 106 339.606C84.1269 339.606 66.3949 321.873 66.3947 300C66.3947 278.127 84.1268 260.395 106 260.395Z" stroke="#AEAEAE" stroke-width="5"/>
<g clip-path="url(#clip1_46_114)">
<path d="M299.437 64.1641L305.538 65.7987C311.253 67.33 315.423 68.4487 318.673 69.5519C321.903 70.6481 324.056 71.6768 325.775 72.9531C331.054 76.8739 334.477 82.803 335.233 89.3353C335.479 91.4617 335.293 93.8413 334.628 97.1864C333.958 100.552 332.842 104.723 331.311 110.438L329.676 116.538C328.145 122.253 327.025 126.423 325.922 129.673C324.826 132.903 323.798 135.056 322.522 136.775C318.601 142.054 312.672 145.477 306.14 146.233C304.013 146.479 301.634 146.293 298.289 145.628C294.922 144.958 290.751 143.842 285.036 142.311L278.936 140.676C273.221 139.145 269.052 138.025 265.802 136.922C262.572 135.826 260.418 134.798 258.7 133.522C253.421 129.601 249.997 123.672 249.242 117.14C248.996 115.013 249.181 112.634 249.847 109.289C250.517 105.923 251.633 101.752 253.164 96.0365L254.799 89.9363C256.33 84.2214 257.449 80.0517 258.552 76.8018C259.648 73.5721 260.677 71.4185 261.953 69.6999C265.874 64.4206 271.803 60.9975 278.335 60.2417C280.462 59.9956 282.841 60.1816 286.186 60.847C289.552 61.5167 293.723 62.6329 299.437 64.1641Z" stroke="#AEAEAE" stroke-width="5"/>
</g>
<path d="M82.6484 81.5166C103.59 60.5753 137.542 60.5754 158.483 81.5166C179.425 102.458 179.425 136.41 158.483 157.352L139.352 176.483C118.41 197.425 84.4578 197.425 63.5166 176.483C42.5753 155.542 42.5753 121.59 63.5166 100.648L82.6484 81.5166Z" stroke="#AEAEAE" stroke-width="10"/>
</g>
<defs>
<linearGradient id="paint0_linear_46_114" x1="233" y1="-7.73844e-06" x2="106.5" y2="390" gradientUnits="userSpaceOnUse">
<stop offset="0.259615" stop-color="#6CF983"/>
<stop offset="0.8" stop-color="#338BFF"/>
</linearGradient>
<clipPath id="clip0_46_114">
<rect width="390" height="390" fill="white"/>
</clipPath>
<clipPath id="clip1_46_114">
<rect width="100" height="100" fill="white" transform="translate(256.882 42) rotate(15)"/>
</clipPath>
</defs>
</svg>
