<svg width="390" height="390" viewBox="0 0 390 390" fill="none" xmlns="http://www.w3.org/2000/svg">
<g clip-path="url(#clip0_1_97)">
<rect width="390" height="390" fill="black"/>
<path d="M367.632 158.018C367.632 175.085 351.652 188.921 331.941 188.921L58.0594 188.921C38.3478 188.921 22.3684 175.085 22.3684 158.018L22.3684 151.553C22.3684 69.0006 99.6582 2.07896 195 2.07895C290.342 2.07894 367.632 69.0006 367.632 151.553V158.018Z" fill="#94FA7F"/>
<path d="M22.3684 232.982C22.3684 215.915 38.3478 202.079 58.0593 202.079L331.941 202.079C351.652 202.079 367.632 215.915 367.632 232.982L367.632 239.447C367.632 321.999 290.342 388.921 195 388.921C99.6582 388.921 22.3684 321.999 22.3684 239.447V232.982Z" fill="#5DA3FF"/>
<path d="M29.1841 236.504C29.1841 220.398 44.5789 207.342 63.5694 207.342L327.431 207.342C346.421 207.342 361.816 220.398 361.816 236.504L361.816 242.605C361.816 320.506 287.354 383.658 195.5 383.658C103.646 383.658 29.1841 320.506 29.1841 242.605V236.504Z" fill="black"/>
<path d="M361.816 154.496C361.816 170.602 346.421 183.658 327.431 183.658L63.5694 183.658C44.579 183.658 29.1842 170.602 29.1842 154.496L29.1842 148.395C29.1842 70.4935 103.646 7.34211 195.5 7.3421C287.354 7.3421 361.816 70.4935 361.816 148.395V154.496Z" fill="#041401"/>
</g>
<defs>
<clipPath id="clip0_1_97">
<rect width="390" height="390" fill="white"/>
</clipPath>
</defs>
</svg>
