<svg width="240" height="240" viewBox="0 0 240 240" fill="none" xmlns="http://www.w3.org/2000/svg">
<g clip-path="url(#clip0_48_171)">
<rect width="240" height="240" fill="url(#paint0_linear_48_171)"/>
<path d="M240 240H0V0H240V240ZM172.434 103.39C163.932 96.8069 152.069 96.8072 143.567 103.39L143.107 103.758C142.62 104.161 142.02 104.689 141.062 105.533L140.204 106.278L139.633 106.742C136.744 109.017 133.361 110.587 129.755 111.322L128.64 111.528L126.665 111.889C126.156 111.986 125.766 112.067 125.405 112.155L124.918 112.28C114.74 115.004 107.57 124.179 107.407 134.776L107.408 135.366C107.419 136 107.456 136.799 107.517 138.076L107.564 139.212L107.57 139.949C107.543 143.631 106.659 147.26 104.983 150.545L104.449 151.548L103.498 153.319C103.257 153.779 103.078 154.136 102.922 154.474L102.715 154.933C98.4934 164.606 101.179 175.945 109.345 182.681L109.806 183.048C110.306 183.435 110.953 183.903 111.987 184.652L112.903 185.323L113.481 185.778C116.337 188.095 118.617 191.05 120.135 194.411L120.584 195.456L121.373 197.306C121.581 197.781 121.747 198.144 121.913 198.477C126.648 207.954 137.079 213.101 147.429 211.129L147.922 211.03C148.648 210.876 149.468 210.646 151.106 210.188L152.201 209.89C156.007 208.923 159.994 208.923 163.8 209.89L164.895 210.188L166.829 210.723C167.329 210.856 167.716 210.953 168.079 211.03L168.572 211.129C178.757 213.07 189.022 208.116 193.858 198.925L194.088 198.477C194.254 198.144 194.42 197.781 194.628 197.306L195.417 195.456C195.639 194.931 195.751 194.667 195.866 194.411C197.485 190.827 199.971 187.703 203.098 185.323L204.014 184.652C205.048 183.903 205.695 183.435 206.195 183.048L206.656 182.681C214.951 175.838 217.591 164.245 213.079 154.474C212.767 153.798 212.362 153.047 211.552 151.548C211.281 151.046 211.145 150.795 211.018 150.545C209.231 147.041 208.343 143.146 208.437 139.212L208.484 138.076C208.565 136.373 208.605 135.521 208.594 134.776C208.428 124.01 201.031 114.713 190.596 112.155C189.874 111.978 189.036 111.828 187.361 111.528C186.801 111.428 186.52 111.378 186.246 111.322C182.399 110.538 178.807 108.804 175.797 106.278C175.582 106.098 175.367 105.91 174.939 105.533C173.661 104.408 173.021 103.845 172.434 103.39ZM147.24 108.134C153.579 103.226 162.422 103.226 168.761 108.134C169.162 108.445 169.631 108.853 170.975 110.036C171.382 110.395 171.658 110.639 171.939 110.875H171.94C175.716 114.042 180.221 116.217 185.048 117.201C185.408 117.275 185.77 117.339 186.304 117.435C188.065 117.75 188.676 117.863 189.168 117.983C196.944 119.889 202.471 126.823 202.595 134.868C202.603 135.377 202.576 136.001 202.491 137.792C202.465 138.335 202.447 138.703 202.438 139.07C202.322 143.999 203.433 148.88 205.673 153.271C205.84 153.598 206.015 153.922 206.273 154.4C207.125 155.977 207.419 156.526 207.632 156.988L207.786 157.331C210.94 164.558 208.93 173.026 202.838 178.052C202.446 178.375 201.944 178.742 200.494 179.792C200.055 180.11 199.757 180.326 199.464 180.549C195.543 183.533 192.427 187.45 190.398 191.942C190.247 192.278 190.103 192.617 189.892 193.117C189.193 194.766 188.948 195.34 188.721 195.795C185.13 202.984 177.156 206.825 169.327 205.161C168.831 205.056 168.232 204.892 166.509 204.41L165.276 204.074C160.8 202.937 156.124 202.867 151.622 203.861L150.725 204.074C150.368 204.165 150.014 204.264 149.492 204.41C147.769 204.892 147.169 205.056 146.674 205.161C138.845 206.825 130.872 202.984 127.28 195.795C127.053 195.34 126.807 194.767 126.108 193.117C125.897 192.617 125.754 192.278 125.603 191.942C123.574 187.45 120.458 183.533 116.537 180.549C116.244 180.326 115.946 180.11 115.507 179.792C114.057 178.742 113.555 178.375 113.163 178.052C106.974 172.946 104.999 164.289 108.369 156.988C108.582 156.526 108.876 155.976 109.728 154.4C109.986 153.923 110.161 153.598 110.328 153.271C112.567 148.88 113.679 143.999 113.562 139.07C113.554 138.703 113.536 138.335 113.51 137.792C113.425 136.001 113.398 135.377 113.406 134.868C113.53 126.823 119.057 119.889 126.833 117.983C127.325 117.863 127.937 117.75 129.697 117.435C130.231 117.339 130.593 117.275 130.953 117.201C135.78 116.217 140.286 114.042 144.061 110.875C144.342 110.639 144.619 110.395 145.026 110.036C146.37 108.854 146.839 108.445 147.24 108.134ZM100.731 48.2686C86.4926 34.0301 63.4067 34.0299 49.168 48.2686L37.2686 60.168C23.0299 74.4067 23.0301 97.4926 37.2686 111.731C51.5074 125.97 74.5933 125.97 88.832 111.731L100.731 99.832C114.97 85.5933 114.97 62.5074 100.731 48.2686ZM53.4111 52.5117C65.3069 40.6161 84.5936 40.616 96.4893 52.5117C108.384 64.4075 108.385 83.6943 96.4893 95.5898L84.5898 107.489C72.6943 119.385 53.4075 119.384 41.5117 107.489C29.616 95.5936 29.6161 76.3069 41.5117 64.4111L53.4111 52.5117Z" fill="black"/>
<g clip-path="url(#clip1_48_171)">
<path d="M192.444 40.6935L196.227 41.7071C199.769 42.6563 202.357 43.35 204.374 44.0346C206.378 44.715 207.719 45.3545 208.79 46.1501C212.074 48.5891 214.204 52.2779 214.674 56.3416C214.828 57.6673 214.711 59.1486 214.298 61.225C213.882 63.3139 213.19 65.9017 212.241 69.4444L211.228 73.227C210.278 76.7695 209.584 79.3568 208.899 81.3736C208.219 83.3781 207.579 84.7187 206.784 85.79C204.344 89.0743 200.656 91.2039 196.592 91.6741C195.266 91.8275 193.786 91.711 191.71 91.298C189.621 90.8824 187.033 90.1904 183.49 89.2412L179.708 88.2276C176.165 87.2784 173.578 86.5838 171.561 85.8992C169.556 85.2187 168.215 84.5791 167.144 83.7834C163.86 81.3443 161.73 77.6556 161.26 73.5919C161.106 72.2663 161.223 70.7855 161.636 68.7094C162.051 66.6206 162.744 64.0328 163.693 60.4903L164.707 56.7077C165.656 53.165 166.35 50.5777 167.034 48.5608C167.715 46.5561 168.355 45.2149 169.15 44.1435C171.589 40.8594 175.278 38.7297 179.342 38.2594C180.667 38.106 182.149 38.2227 184.225 38.6358C186.314 39.0513 188.902 39.7443 192.444 40.6935Z" stroke="#6CF983" stroke-width="3"/>
</g>
<path d="M66.0002 161.395C79.5892 161.395 90.6057 172.411 90.6057 186C90.6055 199.589 79.5891 210.606 66.0002 210.606C52.4111 210.606 41.3948 199.589 41.3947 186C41.3947 172.411 52.4111 161.395 66.0002 161.395Z" stroke="#338BFF" stroke-width="3"/>
</g>
<defs>
<linearGradient id="paint0_linear_48_171" x1="143.385" y1="-4.76212e-06" x2="65.5385" y2="240" gradientUnits="userSpaceOnUse">
<stop offset="0.259615" stop-color="#6CF983"/>
<stop offset="0.8" stop-color="#338BFF"/>
</linearGradient>
<clipPath id="clip0_48_171">
<rect width="240" height="240" fill="white"/>
</clipPath>
<clipPath id="clip1_48_171">
<rect width="62" height="62" fill="white" transform="translate(166.047 27) rotate(15)"/>
</clipPath>
</defs>
</svg>
