<svg width="240" height="240" viewBox="0 0 240 240" fill="none" xmlns="http://www.w3.org/2000/svg">
<g clip-path="url(#clip0_47_154)">
<rect width="240" height="240" fill="url(#paint0_linear_47_154)"/>
<path d="M390 390H0V0H390V390ZM172.434 103.39C163.932 96.8067 152.068 96.8067 143.566 103.39C142.979 103.845 142.339 104.408 141.061 105.533C140.633 105.91 140.419 106.098 140.204 106.278C137.194 108.804 133.602 110.538 129.755 111.322C129.48 111.378 129.2 111.429 128.639 111.529C126.964 111.829 126.127 111.979 125.405 112.156C114.97 114.714 107.572 124.01 107.406 134.776C107.395 135.521 107.436 136.373 107.517 138.076C107.544 138.647 107.557 138.932 107.563 139.213C107.657 143.147 106.769 147.041 104.982 150.545C104.855 150.795 104.72 151.047 104.448 151.549C103.638 153.048 103.233 153.798 102.921 154.474C98.4092 164.246 101.05 175.838 109.345 182.681C109.918 183.154 110.608 183.653 111.987 184.652C112.449 184.987 112.679 185.154 112.902 185.324C116.029 187.704 118.515 190.827 120.134 194.412C120.249 194.668 120.361 194.931 120.583 195.456C121.248 197.026 121.581 197.812 121.913 198.478C126.723 208.105 137.412 213.264 147.921 211.03C148.647 210.876 149.467 210.647 151.106 210.189C151.655 210.036 151.93 209.959 152.201 209.89C156.007 208.923 159.993 208.923 163.799 209.89C164.07 209.959 164.345 210.036 164.894 210.189C166.533 210.647 167.353 210.876 168.079 211.03C178.588 213.264 189.277 208.105 194.087 198.478C194.419 197.812 194.752 197.026 195.417 195.456C195.639 194.931 195.751 194.668 195.866 194.412C197.485 190.827 199.971 187.704 203.098 185.324C203.321 185.154 203.551 184.987 204.013 184.652C205.392 183.653 206.082 183.154 206.655 182.681C214.95 175.838 217.591 164.246 213.079 154.474C212.767 153.798 212.362 153.048 211.552 151.549C211.28 151.047 211.145 150.795 211.018 150.545C209.231 147.041 208.343 143.147 208.437 139.213C208.443 138.932 208.456 138.647 208.483 138.076C208.564 136.373 208.605 135.521 208.594 134.776C208.428 124.01 201.03 114.714 190.595 112.156C189.873 111.979 189.036 111.829 187.361 111.529C186.8 111.429 186.52 111.378 186.245 111.322C182.398 110.538 178.806 108.804 175.796 106.278C175.581 106.098 175.367 105.91 174.939 105.533C173.661 104.408 173.021 103.845 172.434 103.39ZM100.731 48.2686C86.4926 34.0297 63.4068 34.0298 49.168 48.2686L37.2686 60.168C23.0298 74.4068 23.0297 97.4926 37.2686 111.731C51.5074 125.97 74.5932 125.97 88.832 111.731L100.731 99.832C114.97 85.5932 114.97 62.5074 100.731 48.2686Z" fill="black"/>
<g clip-path="url(#clip1_47_154)">
<path d="M192.444 40.6935L196.227 41.7071C199.769 42.6563 202.357 43.35 204.374 44.0346C206.378 44.715 207.719 45.3545 208.79 46.1501C212.074 48.5891 214.204 52.2779 214.674 56.3416C214.828 57.6673 214.711 59.1486 214.298 61.225C213.882 63.3139 213.19 65.9017 212.241 69.4444L211.228 73.227C210.278 76.7695 209.584 79.3568 208.899 81.3736C208.219 83.3781 207.579 84.7187 206.784 85.79C204.344 89.0743 200.656 91.2039 196.592 91.6741C195.266 91.8275 193.786 91.711 191.71 91.298C189.621 90.8824 187.033 90.1904 183.49 89.2412L179.708 88.2276C176.165 87.2784 173.578 86.5838 171.561 85.8992C169.556 85.2187 168.215 84.5791 167.144 83.7834C163.86 81.3443 161.73 77.6556 161.26 73.5919C161.106 72.2663 161.223 70.7855 161.636 68.7094C162.051 66.6206 162.744 64.0328 163.693 60.4903L164.707 56.7077C165.656 53.165 166.35 50.5777 167.034 48.5608C167.715 46.5561 168.355 45.2149 169.15 44.1435C171.589 40.8594 175.278 38.7297 179.342 38.2594C180.667 38.106 182.149 38.2227 184.225 38.6358C186.314 39.0513 188.902 39.7443 192.444 40.6935Z" stroke="#6CF983" stroke-width="3"/>
</g>
<path d="M66.0002 161.395C79.5892 161.395 90.6057 172.411 90.6057 186C90.6055 199.589 79.5891 210.606 66.0002 210.606C52.4111 210.606 41.3948 199.589 41.3947 186C41.3947 172.411 52.4111 161.395 66.0002 161.395Z" stroke="#338BFF" stroke-width="3"/>
</g>
<defs>
<linearGradient id="paint0_linear_47_154" x1="143.385" y1="-4.76212e-06" x2="65.5385" y2="240" gradientUnits="userSpaceOnUse">
<stop offset="0.259615" stop-color="#6CF983"/>
<stop offset="0.8" stop-color="#338BFF"/>
</linearGradient>
<clipPath id="clip0_47_154">
<rect width="240" height="240" fill="white"/>
</clipPath>
<clipPath id="clip1_47_154">
<rect width="62" height="62" fill="white" transform="translate(166.047 27) rotate(15)"/>
</clipPath>
</defs>
</svg>
