<svg width="240" height="240" viewBox="0 0 240 240" fill="none" xmlns="http://www.w3.org/2000/svg">
<g clip-path="url(#clip0_48_200)">
<rect width="240" height="240" fill="url(#paint0_linear_48_200)"/>
<rect width="240" height="240" fill="black"/>
<path d="M145.403 105.762C152.823 100.016 163.177 100.016 170.597 105.762C171.092 106.145 171.646 106.631 172.957 107.785C173.374 108.152 173.619 108.368 173.868 108.577C177.261 111.423 181.309 113.378 185.646 114.262C185.963 114.327 186.284 114.384 186.832 114.482C188.55 114.79 189.274 114.921 189.881 115.07C198.988 117.301 205.45 125.417 205.594 134.823C205.604 135.45 205.57 136.187 205.487 137.934C205.46 138.491 205.445 138.817 205.437 139.141C205.332 143.573 206.332 147.961 208.345 151.909C208.492 152.197 208.648 152.484 208.913 152.974C209.743 154.512 210.092 155.162 210.355 155.731C214.296 164.267 211.989 174.393 204.747 180.367C204.264 180.765 203.668 181.199 202.253 182.223C201.803 182.549 201.539 182.741 201.281 182.937C197.757 185.619 194.956 189.138 193.132 193.177C192.999 193.473 192.871 193.773 192.654 194.287C191.972 195.897 191.684 196.576 191.404 197.136C187.203 205.545 177.872 210.045 168.703 208.096C168.091 207.966 167.382 207.769 165.701 207.299C165.165 207.15 164.852 207.062 164.538 206.982C160.247 205.892 155.753 205.892 151.462 206.982C151.148 207.062 150.835 207.15 150.299 207.299C148.618 207.769 147.908 207.966 147.297 208.096C138.128 210.045 128.797 205.545 124.596 197.136C124.316 196.576 124.028 195.897 123.346 194.287C123.129 193.774 123.001 193.473 122.868 193.177C121.044 189.138 118.243 185.619 114.719 182.937C114.461 182.741 114.197 182.549 113.747 182.223C112.332 181.199 111.736 180.765 111.253 180.367C104.011 174.393 101.704 164.267 105.645 155.731C105.908 155.162 106.257 154.512 107.087 152.974C107.352 152.484 107.507 152.197 107.655 151.909C109.668 147.961 110.668 143.573 110.563 139.141C110.555 138.817 110.54 138.491 110.513 137.934C110.43 136.187 110.396 135.45 110.406 134.823C110.55 125.417 117.012 117.301 126.119 115.07C126.726 114.921 127.45 114.79 129.168 114.482C129.716 114.384 130.037 114.327 130.354 114.262C134.691 113.378 138.739 111.423 142.132 108.577C142.381 108.368 142.626 108.152 143.043 107.785C144.354 106.631 144.908 106.145 145.403 105.762Z" stroke="#AEAEAE" stroke-width="6"/>
<g clip-path="url(#clip1_48_200)">
<path d="M192.444 40.6935L196.227 41.707C199.769 42.6563 202.357 43.35 204.374 44.0346C206.378 44.715 207.719 45.3545 208.79 46.1501C212.074 48.5891 214.204 52.2779 214.674 56.3416C214.828 57.6673 214.711 59.1486 214.298 61.225C213.882 63.3139 213.19 65.9017 212.241 69.4444L211.228 73.227C210.278 76.7695 209.584 79.3568 208.899 81.3736C208.219 83.3781 207.579 84.7186 206.784 85.79C204.344 89.0743 200.656 91.2039 196.592 91.6741C195.266 91.8274 193.786 91.711 191.71 91.298C189.621 90.8824 187.033 90.1904 183.49 89.2412L179.708 88.2276C176.165 87.2784 173.578 86.5837 171.561 85.8992C169.556 85.2187 168.215 84.5791 167.144 83.7834C163.86 81.3443 161.73 77.6556 161.26 73.5919C161.106 72.2663 161.223 70.7855 161.636 68.7094C162.051 66.6205 162.744 64.0328 163.693 60.4903L164.707 56.7077C165.656 53.165 166.35 50.5776 167.034 48.5608C167.715 46.5561 168.355 45.2149 169.15 44.1434C171.589 40.8593 175.278 38.7297 179.342 38.2594C180.667 38.106 182.149 38.2227 184.225 38.6358C186.314 39.0513 188.902 39.7443 192.444 40.6935Z" stroke="#AEAEAE" stroke-width="3"/>
</g>
<path d="M66.0002 161.395C79.5892 161.395 90.6057 172.411 90.6057 186C90.6055 199.589 79.5891 210.606 66.0002 210.606C52.4111 210.606 41.3948 199.589 41.3947 186C41.3947 172.411 52.4111 161.395 66.0002 161.395Z" stroke="#AEAEAE" stroke-width="3"/>
<path d="M51.2897 50.3903C64.357 37.323 85.5427 37.323 98.61 50.3903C111.677 63.4575 111.677 84.6433 98.61 97.7106L86.7106 109.61C73.6433 122.677 52.4575 122.677 39.3903 109.61C26.323 96.5427 26.323 75.357 39.3903 62.2897L51.2897 50.3903Z" stroke="#AEAEAE" stroke-width="6"/>
</g>
<defs>
<linearGradient id="paint0_linear_48_200" x1="143.385" y1="-4.76212e-06" x2="65.5385" y2="240" gradientUnits="userSpaceOnUse">
<stop offset="0.259615" stop-color="#6CF983"/>
<stop offset="0.8" stop-color="#338BFF"/>
</linearGradient>
<clipPath id="clip0_48_200">
<rect width="240" height="240" fill="white"/>
</clipPath>
<clipPath id="clip1_48_200">
<rect width="62" height="62" fill="white" transform="translate(166.047 27) rotate(15)"/>
</clipPath>
</defs>
</svg>
