<svg width="240" height="240" viewBox="0 0 240 240" fill="none" xmlns="http://www.w3.org/2000/svg">
<g clip-path="url(#clip0_18_46)">
<rect width="240" height="240" fill="black"/>
<path d="M225.263 97.0391C225.263 107.424 215.52 115.842 203.5 115.842L36.4996 115.842C24.4804 115.842 14.7368 107.424 14.7368 97.0391L14.7368 93.1053C14.7368 42.8764 61.8648 2.1579 120 2.1579C178.135 2.15789 225.263 42.8764 225.263 93.1053V97.0391Z" fill="#94FA7F"/>
<path d="M14.7368 143.961C14.7368 133.576 24.4804 125.158 36.4996 125.158L203.5 125.158C215.52 125.158 225.263 133.576 225.263 143.961L225.263 147.895C225.263 198.124 178.135 238.842 120 238.842C61.8648 238.842 14.7368 198.124 14.7368 147.895V143.961Z" fill="#5DA3FF"/>
<path d="M19.7895 146.103C19.7895 136.439 29.0653 128.605 40.5076 128.605L199.492 128.605C210.935 128.605 220.211 136.439 220.211 146.103L220.211 149.763C220.211 196.504 175.345 234.395 120 234.395C64.6553 234.395 19.7895 196.504 19.7895 149.763V146.103Z" fill="black"/>
<path d="M220.211 94.8974C220.211 104.561 210.935 112.395 199.492 112.395L40.5077 112.395C29.0653 112.395 19.7895 104.561 19.7895 94.8975L19.7895 91.2368C19.7895 44.4961 64.6553 6.60526 120 6.60526C175.345 6.60525 220.211 44.4961 220.211 91.2368V94.8974Z" fill="#0A3102"/>
</g>
<defs>
<clipPath id="clip0_18_46">
<rect width="240" height="240" fill="white"/>
</clipPath>
</defs>
</svg>
